{
	"asset":{
		"generator":"Khronos glTF Blender I/O v5.0.21",
		"version":"2.0"
	},
	"extensionsUsed":[
		"KHR_materials_specular",
		"KHR_lights_punctual"
	],
	"extensionsRequired":[
		"KHR_lights_punctual"
	],
	"extensions":{
		"KHR_lights_punctual":{
			"lights":[
				{
					"color":[
						1,
						1,
						1
					],
					"intensity":683,
					"type":"directional",
					"name":"Sun"
				}
			]
		}
	},
	"scene":0,
	"scenes":[
		{
			"name":"Scene",
			"nodes":[
				0,
				1,
				2,
				3,
				4,
				5,
				6,
				7,
				8,
				9
			]
		}
	],
	"nodes":[
		{
			"mesh":0,
			"name":"CubeA",
			"translation":[
				0,
				1,
				0
			]
		},
		{
			"extensions":{
				"KHR_lights_punctual":{
					"light":0
				}
			},
			"name":"Sun",
			"rotation":[
				-0.8717374801635742,
				0.15335431694984436,
				-0.2647378444671631,
				0.38271406292915344
			],
			"translation":[
				11.378222465515137,
				4.65980339050293,
				-11.435370445251465
			]
		},
		{
			"mesh":1,
			"name":"CubeB",
			"translation":[
				4.173009872436523,
				1,
				0
			]
		},
		{
			"mesh":2,
			"name":"CubeC",
			"translation":[
				7.905799865722656,
				1,
				0
			]
		},
		{
			"mesh":3,
			"name":"CubeD",
			"translation":[
				12.196907043457031,
				2.6431756019592285,
				0
			]
		},
		{
			"mesh":4,
			"name":"Ground"
		},
		{
			"mesh":5,
			"name":"GlassA",
			"rotation":[
				0,
				0.9038688540458679,
				0,
				0.42780962586402893
			],
			"translation":[
				4.053369998931885,
				1.302964210510254,
				4.389248847961426
			]
		},
		{
			"mesh":6,
			"name":"GlassB",
			"rotation":[
				0,
				0.9038688540458679,
				0,
				0.42780962586402893
			],
			"translation":[
				4.687028408050537,
				1.302964210510254,
				3.8698160648345947
			]
		},
		{
			"mesh":7,
			"name":"GlassC",
			"rotation":[
				0,
				0.9038688540458679,
				0,
				0.42780962586402893
			],
			"translation":[
				5.428103923797607,
				1.302964210510254,
				3.2623291015625
			]
		},
		{
			"mesh":8,
			"name":"Bush",
			"rotation":[
				0,
				0.21699218451976776,
				0,
				0.9761733412742615
			],
			"translation":[
				-3.8540329933166504,
				0,
				-3.28365159034729
			]
		}
	],
	"materials":[
		{
			"doubleSided":true,
			"emissiveFactor":[
				1,
				0.4105316996574402,
				0.05480198562145233
			],
			"emissiveTexture":{
				"index":0
			},
			"extensions":{
				"KHR_materials_specular":{
					"specularColorFactor":[
						0.04075758159160614,
						0.30197596549987793,
						1
					],
					"specularColorTexture":{
						"index":1
					}
				}
			},
			"extras":{
				"MAT_TEST":1.0
			},
			"name":"CubeAMat",
			"normalTexture":{
				"index":2
			},
			"pbrMetallicRoughness":{
				"baseColorFactor":[
					1,
					0.0031101424247026443,
					0.5823514461517334,
					1
				],
				"baseColorTexture":{
					"index":3
				},
				"metallicFactor":0,
				"roughnessFactor":0.5
			}
		},
		{
			"doubleSided":true,
			"extensions":{
				"KHR_materials_specular":{
					"specularColorFactor":[
						0.9023171663284302,
						0.9023171663284302,
						0.9023171663284302
					]
				}
			},
			"name":"CubeBMat",
			"pbrMetallicRoughness":{
				"baseColorFactor":[
					0.8000074625015259,
					0.016526920720934868,
					0.014170064590871334,
					1
				],
				"metallicFactor":0,
				"roughnessFactor":0.5
			}
		},
		{
			"doubleSided":true,
			"extensions":{
				"KHR_materials_specular":{
					"specularColorFactor":[
						0.0,
						0.0,
						0.0
					]
				}
			},
			"name":"CubeCMat",
			"pbrMetallicRoughness":{
				"baseColorFactor":[
					0.3996460437774658,
					0.8000074625015259,
					0.022275496274232864,
					1
				],
				"metallicFactor":0,
				"roughnessFactor":0.5
			}
		},
		{
			"doubleSided":true,
			"emissiveFactor":[
				0.32986098527908325,
				1,
				0.03939729556441307
			],
			"name":"CubeDMat",
			"pbrMetallicRoughness":{
				"baseColorFactor":[
					0.3870496451854706,
					0.24612541496753693,
					0.2825460433959961,
					1
				],
				"metallicFactor":0,
				"roughnessFactor":0.5
			}
		},
		{
			"doubleSided":true,
			"extensions":{
				"KHR_materials_specular":{
					"specularColorFactor":[
						0.0,
						0.0,
						0.0
					]
				}
			},
			"name":"GroundMat",
			"pbrMetallicRoughness":{
				"baseColorTexture":{
					"index":4
				},
				"metallicFactor":0,
				"roughnessFactor":0.5
			}
		},
		{
			"alphaMode":"BLEND",
			"doubleSided":true,
			"name":"GlassAMat",
			"pbrMetallicRoughness":{
				"baseColorFactor":[
					0.11541269719600677,
					0.08127974718809128,
					0.8000229597091675,
					0.5
				],
				"metallicFactor":0,
				"roughnessFactor":0.5
			}
		},
		{
			"alphaMode":"BLEND",
			"doubleSided":true,
			"name":"GlassBMat",
			"pbrMetallicRoughness":{
				"baseColorFactor":[
					0.8000074625015259,
					0.07675676792860031,
					0.10769440233707428,
					0.5
				],
				"metallicFactor":0,
				"roughnessFactor":0.5
			}
		},
		{
			"alphaMode":"BLEND",
			"doubleSided":true,
			"name":"GlassCMat",
			"pbrMetallicRoughness":{
				"baseColorFactor":[
					0.14890608191490173,
					0.8000156879425049,
					0.04679131507873535,
					0.5
				],
				"metallicFactor":0,
				"roughnessFactor":0.5
			}
		},
		{
			"alphaMode":"MASK",
			"doubleSided":true,
			"name":"BushMat",
			"pbrMetallicRoughness":{
				"baseColorTexture":{
					"index":5
				},
				"metallicFactor":0,
				"roughnessFactor":0.5
			}
		}
	],
	"meshes":[
		{
			"name":"CubeAMesh",
			"primitives":[
				{
					"attributes":{
						"POSITION":0,
						"NORMAL":1,
						"TEXCOORD_0":2,
						"TANGENT":3
					},
					"indices":4,
					"material":0
				}
			]
		},
		{
			"name":"CubeBMesh",
			"primitives":[
				{
					"attributes":{
						"POSITION":5,
						"NORMAL":6,
						"TEXCOORD_0":7,
						"TANGENT":8
					},
					"indices":4,
					"material":1
				}
			]
		},
		{
			"name":"CubeCMesh",
			"primitives":[
				{
					"attributes":{
						"POSITION":9,
						"NORMAL":10,
						"TEXCOORD_0":11,
						"TANGENT":12
					},
					"indices":4,
					"material":2
				}
			]
		},
		{
			"name":"CubeDMesh",
			"primitives":[
				{
					"attributes":{
						"POSITION":13,
						"NORMAL":14,
						"TEXCOORD_0":15,
						"TANGENT":16
					},
					"indices":4,
					"material":3
				}
			]
		},
		{
			"name":"GroundMesh",
			"primitives":[
				{
					"attributes":{
						"POSITION":17,
						"NORMAL":18,
						"TEXCOORD_0":19,
						"TANGENT":20
					},
					"indices":21,
					"material":4
				}
			]
		},
		{
			"name":"GlassAMesh",
			"primitives":[
				{
					"attributes":{
						"POSITION":22,
						"NORMAL":23,
						"TEXCOORD_0":24,
						"TANGENT":25
					},
					"indices":21,
					"material":5
				}
			]
		},
		{
			"name":"GlassBMesh",
			"primitives":[
				{
					"attributes":{
						"POSITION":26,
						"NORMAL":27,
						"TEXCOORD_0":28,
						"TANGENT":29
					},
					"indices":21,
					"material":6
				}
			]
		},
		{
			"name":"GlassCMesh",
			"primitives":[
				{
					"attributes":{
						"POSITION":30,
						"NORMAL":31,
						"TEXCOORD_0":32,
						"TANGENT":33
					},
					"indices":21,
					"material":7
				}
			]
		},
		{
			"name":"BushMesh",
			"primitives":[
				{
					"attributes":{
						"POSITION":34,
						"NORMAL":35,
						"TEXCOORD_0":36,
						"TANGENT":37
					},
					"indices":38,
					"material":8
				}
			]
		}
	],
	"textures":[
		{
			"sampler":0,
			"source":0
		},
		{
			"sampler":0,
			"source":1
		},
		{
			"sampler":0,
			"source":2
		},
		{
			"sampler":0,
			"source":3
		},
		{
			"sampler":0,
			"source":4
		},
		{
			"sampler":0,
			"source":5
		}
	],
	"images":[
		{
			"mimeType":"image/png",
			"name":"metal_wood_test_emission",
			"uri":"metal_wood_test_emission.png"
		},
		{
			"mimeType":"image/png",
			"name":"metal_wood_test_specular",
			"uri":"metal_wood_test_specular.png"
		},
		{
			"mimeType":"image/png",
			"name":"metal_wood_test_normal",
			"uri":"metal_wood_test_normal.png"
		},
		{
			"mimeType":"image/png",
			"name":"metal_wood_test_diffuse",
			"uri":"metal_wood_test_diffuse.png"
		},
		{
			"mimeType":"image/png",
			"name":"Untitled",
			"uri":"Untitled.png"
		},
		{
			"mimeType":"image/png",
			"name":"TCom_Trees0023_masked_S",
			"uri":"TCom_Trees0023_masked_S.png"
		}
	],
	"accessors":[
		{
			"bufferView":0,
			"componentType":5126,
			"count":24,
			"max":[
				1,
				1,
				1
			],
			"min":[
				-1,
				-1,
				-1
			],
			"type":"VEC3"
		},
		{
			"bufferView":1,
			"componentType":5126,
			"count":24,
			"type":"VEC3"
		},
		{
			"bufferView":2,
			"componentType":5126,
			"count":24,
			"type":"VEC2"
		},
		{
			"bufferView":3,
			"componentType":5126,
			"count":24,
			"type":"VEC4"
		},
		{
			"bufferView":4,
			"componentType":5123,
			"count":36,
			"type":"SCALAR"
		},
		{
			"bufferView":5,
			"componentType":5126,
			"count":24,
			"max":[
				1,
				1,
				1
			],
			"min":[
				-1,
				-1,
				-1
			],
			"type":"VEC3"
		},
		{
			"bufferView":6,
			"componentType":5126,
			"count":24,
			"type":"VEC3"
		},
		{
			"bufferView":7,
			"componentType":5126,
			"count":24,
			"type":"VEC2"
		},
		{
			"bufferView":8,
			"componentType":5126,
			"count":24,
			"type":"VEC4"
		},
		{
			"bufferView":9,
			"componentType":5126,
			"count":24,
			"max":[
				1,
				1,
				1
			],
			"min":[
				-1,
				-1,
				-1
			],
			"type":"VEC3"
		},
		{
			"bufferView":10,
			"componentType":5126,
			"count":24,
			"type":"VEC3"
		},
		{
			"bufferView":11,
			"componentType":5126,
			"count":24,
			"type":"VEC2"
		},
		{
			"bufferView":12,
			"componentType":5126,
			"count":24,
			"type":"VEC4"
		},
		{
			"bufferView":13,
			"componentType":5126,
			"count":24,
			"max":[
				1,
				1,
				1
			],
			"min":[
				-1,
				-1,
				-1
			],
			"type":"VEC3"
		},
		{
			"bufferView":14,
			"componentType":5126,
			"count":24,
			"type":"VEC3"
		},
		{
			"bufferView":15,
			"componentType":5126,
			"count":24,
			"type":"VEC2"
		},
		{
			"bufferView":16,
			"componentType":5126,
			"count":24,
			"type":"VEC4"
		},
		{
			"bufferView":17,
			"componentType":5126,
			"count":4,
			"max":[
				19.352306365966797,
				0,
				6.968641757965088
			],
			"min":[
				-6.968641757965088,
				0,
				-6.968641757965088
			],
			"type":"VEC3"
		},
		{
			"bufferView":18,
			"componentType":5126,
			"count":4,
			"type":"VEC3"
		},
		{
			"bufferView":19,
			"componentType":5126,
			"count":4,
			"type":"VEC2"
		},
		{
			"bufferView":20,
			"componentType":5126,
			"count":4,
			"type":"VEC4"
		},
		{
			"bufferView":21,
			"componentType":5123,
			"count":6,
			"type":"SCALAR"
		},
		{
			"bufferView":22,
			"componentType":5126,
			"count":4,
			"max":[
				1,
				1,
				4.371138828673793e-08
			],
			"min":[
				-1,
				-1,
				-4.371138828673793e-08
			],
			"type":"VEC3"
		},
		{
			"bufferView":23,
			"componentType":5126,
			"count":4,
			"type":"VEC3"
		},
		{
			"bufferView":24,
			"componentType":5126,
			"count":4,
			"type":"VEC2"
		},
		{
			"bufferView":25,
			"componentType":5126,
			"count":4,
			"type":"VEC4"
		},
		{
			"bufferView":26,
			"componentType":5126,
			"count":4,
			"max":[
				1,
				1,
				4.371138828673793e-08
			],
			"min":[
				-1,
				-1,
				-4.371138828673793e-08
			],
			"type":"VEC3"
		},
		{
			"bufferView":27,
			"componentType":5126,
			"count":4,
			"type":"VEC3"
		},
		{
			"bufferView":28,
			"componentType":5126,
			"count":4,
			"type":"VEC2"
		},
		{
			"bufferView":29,
			"componentType":5126,
			"count":4,
			"type":"VEC4"
		},
		{
			"bufferView":30,
			"componentType":5126,
			"count":4,
			"max":[
				1,
				1,
				4.371138828673793e-08
			],
			"min":[
				-1,
				-1,
				-4.371138828673793e-08
			],
			"type":"VEC3"
		},
		{
			"bufferView":31,
			"componentType":5126,
			"count":4,
			"type":"VEC3"
		},
		{
			"bufferView":32,
			"componentType":5126,
			"count":4,
			"type":"VEC2"
		},
		{
			"bufferView":33,
			"componentType":5126,
			"count":4,
			"type":"VEC4"
		},
		{
			"bufferView":34,
			"componentType":5126,
			"count":16,
			"max":[
				1.0000001192092896,
				2,
				0.8660263419151306
			],
			"min":[
				-1.0000001192092896,
				-7.549789415861596e-08,
				-0.8660255074501038
			],
			"type":"VEC3"
		},
		{
			"bufferView":35,
			"componentType":5126,
			"count":16,
			"type":"VEC3"
		},
		{
			"bufferView":36,
			"componentType":5126,
			"count":16,
			"type":"VEC2"
		},
		{
			"bufferView":37,
			"componentType":5126,
			"count":16,
			"type":"VEC4"
		},
		{
			"bufferView":38,
			"componentType":5123,
			"count":24,
			"type":"SCALAR"
		}
	],
	"bufferViews":[
		{
			"buffer":0,
			"byteLength":288,
			"byteOffset":0,
			"target":34962
		},
		{
			"buffer":0,
			"byteLength":288,
			"byteOffset":288,
			"target":34962
		},
		{
			"buffer":0,
			"byteLength":192,
			"byteOffset":576,
			"target":34962
		},
		{
			"buffer":0,
			"byteLength":384,
			"byteOffset":768,
			"target":34962
		},
		{
			"buffer":0,
			"byteLength":72,
			"byteOffset":1152,
			"target":34963
		},
		{
			"buffer":0,
			"byteLength":288,
			"byteOffset":1224,
			"target":34962
		},
		{
			"buffer":0,
			"byteLength":288,
			"byteOffset":1512,
			"target":34962
		},
		{
			"buffer":0,
			"byteLength":192,
			"byteOffset":1800,
			"target":34962
		},
		{
			"buffer":0,
			"byteLength":384,
			"byteOffset":1992,
			"target":34962
		},
		{
			"buffer":0,
			"byteLength":288,
			"byteOffset":2376,
			"target":34962
		},
		{
			"buffer":0,
			"byteLength":288,
			"byteOffset":2664,
			"target":34962
		},
		{
			"buffer":0,
			"byteLength":192,
			"byteOffset":2952,
			"target":34962
		},
		{
			"buffer":0,
			"byteLength":384,
			"byteOffset":3144,
			"target":34962
		},
		{
			"buffer":0,
			"byteLength":288,
			"byteOffset":3528,
			"target":34962
		},
		{
			"buffer":0,
			"byteLength":288,
			"byteOffset":3816,
			"target":34962
		},
		{
			"buffer":0,
			"byteLength":192,
			"byteOffset":4104,
			"target":34962
		},
		{
			"buffer":0,
			"byteLength":384,
			"byteOffset":4296,
			"target":34962
		},
		{
			"buffer":0,
			"byteLength":48,
			"byteOffset":4680,
			"target":34962
		},
		{
			"buffer":0,
			"byteLength":48,
			"byteOffset":4728,
			"target":34962
		},
		{
			"buffer":0,
			"byteLength":32,
			"byteOffset":4776,
			"target":34962
		},
		{
			"buffer":0,
			"byteLength":64,
			"byteOffset":4808,
			"target":34962
		},
		{
			"buffer":0,
			"byteLength":12,
			"byteOffset":4872,
			"target":34963
		},
		{
			"buffer":0,
			"byteLength":48,
			"byteOffset":4884,
			"target":34962
		},
		{
			"buffer":0,
			"byteLength":48,
			"byteOffset":4932,
			"target":34962
		},
		{
			"buffer":0,
			"byteLength":32,
			"byteOffset":4980,
			"target":34962
		},
		{
			"buffer":0,
			"byteLength":64,
			"byteOffset":5012,
			"target":34962
		},
		{
			"buffer":0,
			"byteLength":48,
			"byteOffset":5076,
			"target":34962
		},
		{
			"buffer":0,
			"byteLength":48,
			"byteOffset":5124,
			"target":34962
		},
		{
			"buffer":0,
			"byteLength":32,
			"byteOffset":5172,
			"target":34962
		},
		{
			"buffer":0,
			"byteLength":64,
			"byteOffset":5204,
			"target":34962
		},
		{
			"buffer":0,
			"byteLength":48,
			"byteOffset":5268,
			"target":34962
		},
		{
			"buffer":0,
			"byteLength":48,
			"byteOffset":5316,
			"target":34962
		},
		{
			"buffer":0,
			"byteLength":32,
			"byteOffset":5364,
			"target":34962
		},
		{
			"buffer":0,
			"byteLength":64,
			"byteOffset":5396,
			"target":34962
		},
		{
			"buffer":0,
			"byteLength":192,
			"byteOffset":5460,
			"target":34962
		},
		{
			"buffer":0,
			"byteLength":192,
			"byteOffset":5652,
			"target":34962
		},
		{
			"buffer":0,
			"byteLength":128,
			"byteOffset":5844,
			"target":34962
		},
		{
			"buffer":0,
			"byteLength":256,
			"byteOffset":5972,
			"target":34962
		},
		{
			"buffer":0,
			"byteLength":48,
			"byteOffset":6228,
			"target":34963
		}
	],
	"samplers":[
		{
			"magFilter":9729,
			"minFilter":9987
		}
	],
	"buffers":[
		{
			"byteLength":6276,
			"uri":"struc_cube.bin"
		}
	]
}
