{
	"asset":{
		"generator":"Khronos glTF Blender I/O v5.0.21",
		"version":"2.0"
	},
	"extensionsUsed":[
		"KHR_materials_specular"
	],
	"scene":0,
	"scenes":[
		{
			"name":"Scene",
			"nodes":[
				0,
				1,
				3
			]
		}
	],
	"nodes":[
		{
			"mesh":0,
			"name":"Ground"
		},
		{
			"mesh":1,
			"name":"Quinoa",
			"rotation":[
				0.14533527195453644,
				0.705721378326416,
				0.04573922976851463,
				0.6919125318527222
			],
			"scale":[
				0.34722810983657837,
				0.3472280502319336,
				0.34722810983657837
			],
			"translation":[
				-0.005796973127871752,
				0.12119381129741669,
				0.008449427783489227
			]
		},
		{
			"mesh":2,
			"name":"Box",
			"scale":[
				0.6046730279922485,
				0.6046727895736694,
				0.6046730279922485
			]
		},
		{
			"children":[
				2
			],
			"name":"BoxParent",
			"translation":[
				-0.6903799772262573,
				0,
				-0.7740912437438965
			]
		}
	],
	"materials":[
		{
			"doubleSided":true,
			"extensions":{
				"KHR_materials_specular":{
					"specularFactor":0
				}
			},
			"name":"GroundMaterial",
			"pbrMetallicRoughness":{
				"baseColorTexture":{
					"index":0
				},
				"metallicFactor":0
			}
		},
		{
			"alphaMode":"MASK",
			"doubleSided":true,
			"extensions":{
				"KHR_materials_specular":{
					"specularFactor":0
				}
			},
			"name":"QuinoaMaterial",
			"pbrMetallicRoughness":{
				"baseColorTexture":{
					"index":1
				},
				"metallicFactor":0
			}
		},
		{
			"doubleSided":true,
			"extensions":{
				"KHR_materials_specular":{
					"specularFactor":0
				}
			},
			"name":"BoxMaterial",
			"pbrMetallicRoughness":{
				"baseColorTexture":{
					"index":2
				},
				"metallicFactor":0
			}
		}
	],
	"meshes":[
		{
			"name":"GroundMesh",
			"primitives":[
				{
					"attributes":{
						"POSITION":0,
						"NORMAL":1,
						"TEXCOORD_0":2
					},
					"indices":3,
					"material":0
				}
			]
		},
		{
			"name":"QuinoaMesh",
			"primitives":[
				{
					"attributes":{
						"POSITION":4,
						"NORMAL":5,
						"TEXCOORD_0":6
					},
					"indices":7,
					"material":1
				}
			]
		},
		{
			"name":"BoxMesh",
			"primitives":[
				{
					"attributes":{
						"POSITION":8,
						"NORMAL":9,
						"TEXCOORD_0":10
					},
					"indices":11,
					"material":2
				}
			]
		}
	],
	"textures":[
		{
			"sampler":0,
			"source":0
		},
		{
			"sampler":0,
			"source":1
		},
		{
			"sampler":1,
			"source":2
		}
	],
	"images":[
		{
			"mimeType":"image/png",
			"name":"grass",
			"uri":"grass.png"
		},
		{
			"mimeType":"image/png",
			"name":"quinoa_tip",
			"uri":"quinoa_tip.png"
		},
		{
			"mimeType":"image/png",
			"name":"tile_patatern",
			"uri":"tile_patatern.png"
		}
	],
	"accessors":[
		{
			"bufferView":0,
			"componentType":5126,
			"count":4,
			"max":[
				1,
				0,
				1
			],
			"min":[
				-1,
				0,
				-1
			],
			"type":"VEC3"
		},
		{
			"bufferView":1,
			"componentType":5126,
			"count":4,
			"type":"VEC3"
		},
		{
			"bufferView":2,
			"componentType":5126,
			"count":4,
			"type":"VEC2"
		},
		{
			"bufferView":3,
			"componentType":5123,
			"count":6,
			"type":"SCALAR"
		},
		{
			"bufferView":4,
			"componentType":5126,
			"count":3536,
			"max":[
				1.11656653881073,
				2.9281113147735596,
				0.8236969709396362
			],
			"min":[
				-0.5629171133041382,
				-0.35247722268104553,
				-0.8048926591873169
			],
			"type":"VEC3"
		},
		{
			"bufferView":5,
			"componentType":5126,
			"count":3536,
			"type":"VEC3"
		},
		{
			"bufferView":6,
			"componentType":5126,
			"count":3536,
			"type":"VEC2"
		},
		{
			"bufferView":7,
			"componentType":5123,
			"count":5466,
			"type":"SCALAR"
		},
		{
			"bufferView":8,
			"componentType":5126,
			"count":24,
			"max":[
				0.19938957691192627,
				0.39877915382385254,
				0.19938957691192627
			],
			"min":[
				-0.19938957691192627,
				0,
				-0.19938957691192627
			],
			"type":"VEC3"
		},
		{
			"bufferView":9,
			"componentType":5126,
			"count":24,
			"type":"VEC3"
		},
		{
			"bufferView":10,
			"componentType":5126,
			"count":24,
			"type":"VEC2"
		},
		{
			"bufferView":11,
			"componentType":5123,
			"count":36,
			"type":"SCALAR"
		}
	],
	"bufferViews":[
		{
			"buffer":0,
			"byteLength":48,
			"byteOffset":0,
			"target":34962
		},
		{
			"buffer":0,
			"byteLength":48,
			"byteOffset":48,
			"target":34962
		},
		{
			"buffer":0,
			"byteLength":32,
			"byteOffset":96,
			"target":34962
		},
		{
			"buffer":0,
			"byteLength":12,
			"byteOffset":128,
			"target":34963
		},
		{
			"buffer":0,
			"byteLength":42432,
			"byteOffset":140,
			"target":34962
		},
		{
			"buffer":0,
			"byteLength":42432,
			"byteOffset":42572,
			"target":34962
		},
		{
			"buffer":0,
			"byteLength":28288,
			"byteOffset":85004,
			"target":34962
		},
		{
			"buffer":0,
			"byteLength":10932,
			"byteOffset":113292,
			"target":34963
		},
		{
			"buffer":0,
			"byteLength":288,
			"byteOffset":124224,
			"target":34962
		},
		{
			"buffer":0,
			"byteLength":288,
			"byteOffset":124512,
			"target":34962
		},
		{
			"buffer":0,
			"byteLength":192,
			"byteOffset":124800,
			"target":34962
		},
		{
			"buffer":0,
			"byteLength":72,
			"byteOffset":124992,
			"target":34963
		}
	],
	"samplers":[
		{
			"magFilter":9728,
			"minFilter":9984
		},
		{
			"magFilter":9729,
			"minFilter":9987
		}
	],
	"buffers":[
		{
			"byteLength":125064,
			"uri":"struct_quinoa.bin"
		}
	]
}
