{
	"asset":{
		"generator":"Khronos glTF Blender I/O v5.0.21",
		"version":"2.0"
	},
	"extensionsUsed":[
		"KHR_materials_specular"
	],
	"scene":0,
	"scenes":[
		{
			"name":"Scene",
			"nodes":[
				0
			]
		}
	],
	"nodes":[
		{
			"mesh":0,
			"name":"Quinoa",
			"rotation":[
				0.14533527195453644,
				0.705721378326416,
				0.04573922976851463,
				0.6919125318527222
			],
			"scale":[
				0.34722810983657837,
				0.3472280502319336,
				0.34722810983657837
			],
			"translation":[
				-0.005796973127871752,
				0.12119381129741669,
				0.008449427783489227
			]
		}
	],
	"materials":[
		{
			"alphaMode":"BLEND",
			"doubleSided":true,
			"extensions":{
				"KHR_materials_specular":{
					"specularFactor":0
				}
			},
			"name":"Material.001",
			"pbrMetallicRoughness":{
				"baseColorTexture":{
					"index":0
				},
				"metallicFactor":0
			}
		}
	],
	"meshes":[
		{
			"name":"Cylinder.008",
			"primitives":[
				{
					"attributes":{
						"POSITION":0,
						"NORMAL":1,
						"TEXCOORD_0":2
					},
					"indices":3,
					"material":0
				}
			]
		}
	],
	"textures":[
		{
			"sampler":0,
			"source":0
		}
	],
	"images":[
		{
			"mimeType":"image/png",
			"name":"quinoa_tip",
			"uri":"quinoa_tip.png"
		}
	],
	"accessors":[
		{
			"bufferView":0,
			"componentType":5126,
			"count":3536,
			"max":[
				1.11656653881073,
				2.9281113147735596,
				0.8236969709396362
			],
			"min":[
				-0.5629171133041382,
				-0.35247722268104553,
				-0.8048926591873169
			],
			"type":"VEC3"
		},
		{
			"bufferView":1,
			"componentType":5126,
			"count":3536,
			"type":"VEC3"
		},
		{
			"bufferView":2,
			"componentType":5126,
			"count":3536,
			"type":"VEC2"
		},
		{
			"bufferView":3,
			"componentType":5123,
			"count":5466,
			"type":"SCALAR"
		}
	],
	"bufferViews":[
		{
			"buffer":0,
			"byteLength":42432,
			"byteOffset":0,
			"target":34962
		},
		{
			"buffer":0,
			"byteLength":42432,
			"byteOffset":42432,
			"target":34962
		},
		{
			"buffer":0,
			"byteLength":28288,
			"byteOffset":84864,
			"target":34962
		},
		{
			"buffer":0,
			"byteLength":10932,
			"byteOffset":113152,
			"target":34963
		}
	],
	"samplers":[
		{
			"magFilter":9728,
			"minFilter":9984
		}
	],
	"buffers":[
		{
			"byteLength":124084,
			"uri":"quinoa.bin"
		}
	]
}
